<svg xmlns="http://www.w3.org/2000/svg" width="22" height="22" viewBox="0 0 22 22" fill="none" stroke="currentColor" stroke-width="1.83333" stroke-linecap="round" stroke-linejoin="round">
  <path d="M11 18.3333H19.25" />
  <path d="M15.0113 3.32017C15.3762 2.95525 15.8712 2.75024 16.3873 2.75024C16.9033 2.75024 17.3983 2.95525 17.7632 3.32017C18.1281 3.68508 18.3331 4.18002 18.3331 4.69608C18.3331 5.21215 18.1281 5.70709 17.7632 6.072L6.754 17.0821C6.53592 17.3002 6.26635 17.4597 5.97025 17.5459L3.33758 18.3141C3.2587 18.3371 3.17509 18.3385 3.0955 18.3181C3.01591 18.2977 2.94326 18.2563 2.88516 18.1982C2.82706 18.1401 2.78565 18.0674 2.76526 17.9878C2.74486 17.9082 2.74624 17.8246 2.76925 17.7458L3.53742 15.1131C3.62378 14.8173 3.78331 14.5481 4.00125 14.3303L15.0113 3.32017Z" />
</svg>
