<svg xmlns="http://www.w3.org/2000/svg" width="22" height="22" viewBox="0 0 22 22" fill="none" stroke="currentColor" stroke-width="1.83333" stroke-linecap="round" stroke-linejoin="round">
  <path d="M11.5372 2.37042C11.1935 2.02658 10.7272 1.83336 10.241 1.83325H3.66671C3.18048 1.83325 2.71416 2.02641 2.37034 2.37022C2.02653 2.71404 1.83337 3.18035 1.83337 3.66659V10.2409C1.83348 10.7271 2.0267 11.1933 2.37054 11.5371L10.3492 19.5158C10.7658 19.9298 11.3293 20.1621 11.9167 20.1621C12.5041 20.1621 13.0676 19.9298 13.4842 19.5158L19.5159 13.4841C19.9299 13.0674 20.1622 12.5039 20.1622 11.9166C20.1622 11.3292 19.9299 10.7657 19.5159 10.3491L11.5372 2.37042Z" />
  <path d="M6.87496 7.33341C7.12809 7.33341 7.33329 7.12821 7.33329 6.87508C7.33329 6.62195 7.12809 6.41675 6.87496 6.41675C6.62183 6.41675 6.41663 6.62195 6.41663 6.87508C6.41663 7.12821 6.62183 7.33341 6.87496 7.33341Z" fill="currentColor" />
</svg>
