<svg xmlns="http://www.w3.org/2000/svg" width="52" height="50" viewBox="0 0 52 50" fill="none">
  <path d="M25 -1.09278e-06C18.3696 -8.0296e-07 12.0107 2.63392 7.32233 7.32233C2.63392 12.0107 -8.82027e-07 18.3696 -1.09278e-06 25C-1.30354e-06 31.6304 2.63392 37.9893 7.32233 42.6777C12.0107 47.3661 18.3696 50 25 50L25 25L25 -1.09278e-06Z" fill="white"/>
  <path d="M51.5 27.5C48.5453 27.5 45.6194 28.082 42.8896 29.2127C40.1598 30.3434 37.6794 32.0008 35.5901 34.0901C33.5008 36.1794 31.8434 38.6598 30.7127 41.3896C29.582 44.1194 29 47.0453 29 50L51.5 50L51.5 27.5Z" fill="white"/>
  <circle cx="40.25" cy="11.25" r="11.25" fill="white"/>
</svg>