<svg width="24" height="24" viewBox="0 0 24 24" fill="none" xmlns="http://www.w3.org/2000/svg">
<g clip-path="url(#clip0_279_2521)">
<path d="M5.78882 12.0504C5.73673 11.91 5.73673 11.7557 5.78882 11.6154C6.29613 10.3853 7.15727 9.33352 8.26305 8.59343C9.36884 7.85334 10.6695 7.45825 12.0001 7.45825C13.3307 7.45825 14.6313 7.85334 15.7371 8.59343C16.8429 9.33352 17.704 10.3853 18.2113 11.6154C18.2634 11.7557 18.2634 11.91 18.2113 12.0504C17.704 13.2805 16.8429 14.3322 15.7371 15.0723C14.6313 15.8124 13.3307 16.2075 12.0001 16.2075C10.6695 16.2075 9.36884 15.8124 8.26305 15.0723C7.15727 14.3322 6.29613 13.2805 5.78882 12.0504Z" stroke="#A09EAA" stroke-width="1.25" stroke-linecap="round" stroke-linejoin="round"/>
<path d="M12 13.7078C13.0355 13.7078 13.875 12.8683 13.875 11.8328C13.875 10.7972 13.0355 9.95776 12 9.95776C10.9645 9.95776 10.125 10.7972 10.125 11.8328C10.125 12.8683 10.9645 13.7078 12 13.7078Z" stroke="#A09EAA" stroke-width="1.25" stroke-linecap="round" stroke-linejoin="round"/>
</g>
<defs>
<clipPath id="clip0_279_2521">
<rect width="15" height="15" fill="white" transform="translate(4.5 4.33276)"/>
</clipPath>
</defs>
</svg>
