<svg width="22" height="22" viewBox="0 0 22 22" fill="none" xmlns="http://www.w3.org/2000/svg">
<path d="M8.24998 15.5834H6.41665C5.20107 15.5834 4.03528 15.1005 3.17574 14.241C2.3162 13.3814 1.83331 12.2157 1.83331 11.0001C1.83331 9.78451 2.3162 8.61872 3.17574 7.75918C4.03528 6.89963 5.20107 6.41675 6.41665 6.41675H8.24998" stroke="#1A1A1A" stroke-width="1.83333" stroke-linecap="round" stroke-linejoin="round"/>
<path d="M13.75 6.41675H15.5833C16.7989 6.41675 17.9647 6.89963 18.8242 7.75918C19.6838 8.61872 20.1667 9.78451 20.1667 11.0001C20.1667 12.2157 19.6838 13.3814 18.8242 14.241C17.9647 15.1005 16.7989 15.5834 15.5833 15.5834H13.75" stroke="#1A1A1A" stroke-width="1.83333" stroke-linecap="round" stroke-linejoin="round"/>
<path d="M7.33331 11H14.6666" stroke="#1A1A1A" stroke-width="1.83333" stroke-linecap="round" stroke-linejoin="round"/>
</svg>
