<svg width="33" height="32" viewBox="0 0 33 32" fill="none" xmlns="http://www.w3.org/2000/svg">
<path d="M32.9606 31.4468C32.7864 31.6341 32.6095 31.819 32.4283 31.9995L18.5602 32.0005C18.5602 30.1095 18.9332 28.2368 19.6569 26.4897C20.3805 24.7427 21.4409 23.155 22.778 21.8179C24.1151 20.4807 25.7027 19.4195 27.4498 18.6958C29.1969 17.9722 31.0696 17.6001 32.9606 17.6001V31.4468Z" fill="black"/>
<path d="M25.7604 0C29.7368 0 32.9606 3.22375 32.9606 7.2002C32.9605 11.1766 29.7368 14.4004 25.7604 14.4004C21.784 14.4004 18.5603 11.1765 18.5602 7.2002C18.5602 3.22376 21.7839 2.62863e-05 25.7604 0Z" fill="black"/>
<path d="M16 32C11.7566 31.9999 7.68705 30.314 4.68652 27.3135C1.68602 24.3129 1.98017e-07 20.2434 0 16C3.05477e-08 11.7566 1.68602 7.68709 4.68652 4.68652C7.68705 1.686 11.7566 6.41002e-05 16 0V32Z" fill="black"/>
</svg>
