<svg width="16" height="16" viewBox="0 0 16 16" fill="none" xmlns="http://www.w3.org/2000/svg">
<path d="M5.33337 5.33325H5.34004M1.33337 3.46658L1.33337 6.44959C1.33337 6.77572 1.33337 6.93878 1.37021 7.09223C1.40288 7.22827 1.45675 7.35833 1.52985 7.47763C1.61231 7.61219 1.72761 7.72749 1.95821 7.95809L7.07063 13.0705C7.86267 13.8625 8.25868 14.2586 8.71534 14.4069C9.11703 14.5375 9.54972 14.5375 9.95141 14.4069C10.4081 14.2586 10.8041 13.8625 11.5961 13.0705L13.0706 11.596C13.8627 10.804 14.2587 10.4079 14.4071 9.95128C14.5376 9.5496 14.5376 9.1169 14.4071 8.71522C14.2587 8.25856 13.8627 7.86254 13.0706 7.07051L7.95821 1.95809C7.72761 1.72749 7.61231 1.61219 7.47775 1.52973C7.35846 1.45663 7.2284 1.40275 7.09235 1.37009C6.9389 1.33325 6.77584 1.33325 6.44972 1.33325L3.46671 1.33325C2.71997 1.33325 2.3466 1.33325 2.06139 1.47858C1.8105 1.60641 1.60653 1.81038 1.4787 2.06126C1.33337 2.34648 1.33337 2.71985 1.33337 3.46658ZM5.66671 5.33325C5.66671 5.51735 5.51747 5.66658 5.33337 5.66658C5.14928 5.66658 5.00004 5.51735 5.00004 5.33325C5.00004 5.14916 5.14928 4.99992 5.33337 4.99992C5.51747 4.99992 5.66671 5.14916 5.66671 5.33325Z" stroke="#6B6A72" stroke-width="1.35" stroke-linecap="round" stroke-linejoin="round"/>
</svg>
